# Blender v2.72 (sub 0) OBJ File: ''
# www.blender.org
mtllib lamp.mtl
o Cube
v 1.000000 -0.316443 -1.000000
v 1.000000 -0.316443 1.000000
v -1.000000 -0.316443 1.000000
v -1.000000 -0.316443 -1.000000
v 1.000000 1.683557 -0.897490
v 0.999999 1.683557 1.000001
v -1.000000 1.683557 1.000000
v -1.000000 1.683557 -1.000000
v 0.472739 2.118816 -0.410766
v 0.472738 2.118816 0.486251
v -0.472739 2.118816 0.486251
v -0.472739 2.118816 -0.459226
v 0.262183 2.791372 -0.216398
v 0.262183 2.791372 0.281092
v -0.262183 2.791372 0.281092
v -0.262183 2.791372 -0.243275
v 1.301066 -0.643917 -1.301066
v 1.301066 -0.643917 1.301066
v -1.301066 -0.643917 1.301066
v -1.301065 -0.643917 -1.301066
v 0.350863 0.332694 -0.862634
v -0.350864 0.332694 -0.862635
v 0.350863 1.034421 -0.862634
v -0.350864 1.034421 -0.862635
v 1.000000 -0.316443 1.000000
v -1.000000 -0.316443 1.000000
v 0.999999 1.683557 1.000001
v -1.000000 1.683557 1.000000
v 0.407438 0.283502 0.913888
v -0.393324 0.283502 0.913888
v 0.407438 1.084264 0.913888
v -0.393324 1.084264 0.913888
vn -0.736200 0.676800 -0.000000
vn -0.636600 0.771200 -0.000000
vn 1.000000 0.000000 0.000000
vn -0.000000 -0.944300 0.329100
vn -1.000000 -0.000000 -0.000000
vn 0.025600 0.025600 -0.999300
vn -0.954300 0.298800 -0.000000
vn -0.000000 0.763000 0.646400
vn 0.033100 0.762600 -0.646100
vn 0.636600 0.771200 0.000000
vn 0.000000 1.000000 -0.000000
vn -0.000000 0.291800 0.956500
vn 0.049000 0.291400 -0.955300
vn 0.954300 0.298800 0.000000
vn 0.000000 -1.000000 -0.000000
vn -0.000000 0.676800 0.736200
vn 0.000000 0.676800 -0.736200
vn 0.736200 0.676800 0.000000
vn -0.000000 -0.000000 1.000000
vn 0.944300 0.000000 0.329100
vn -0.944300 -0.000000 0.329100
vn -0.000000 0.944300 0.329100
vn 0.000000 0.142200 -0.989800
vn -0.140500 -0.000000 -0.990100
vn 0.143800 0.000000 -0.989600
vn 0.000000 -0.142100 -0.989900
usemtl Material
s off
f 3//1 4//1 20//1 19//1
f 8//2 7//2 11//2 12//2
f 1//3 5//3 6//3 2//3
f 6//4 7//4 24//4 23//4
f 3//5 7//5 8//5 4//5
f 5//6 1//6 4//6 8//6
f 12//7 11//7 15//7 16//7
f 7//8 6//8 10//8 11//8
f 5//9 8//9 12//9 9//9
f 6//10 5//10 9//10 10//10
f 13//11 16//11 15//11 14//11
f 11//12 10//12 14//12 15//12
f 9//13 12//13 16//13 13//13
f 10//14 9//14 13//14 14//14
f 17//15 18//15 19//15 20//15
f 2//16 3//16 19//16 18//16
f 4//17 1//17 17//17 20//17
f 1//18 2//18 18//18 17//18
f 21//19 23//19 24//19 22//19
f 7//20 3//20 22//20 24//20
f 2//21 6//21 23//21 21//21
f 3//22 2//22 21//22 22//22
f 7//19 6//19 27//19 28//19
f 3//19 7//19 28//19 26//19
f 6//19 2//19 25//19 27//19
f 2//19 3//19 26//19 25//19
f 28//23 27//23 31//23 32//23
f 26//24 28//24 32//24 30//24
f 27//25 25//25 29//25 31//25
f 25//26 26//26 30//26 29//26
